<svg id="visual" viewBox="0 0 1000 1000" width="1000" height="1000" xmlns="http://www.w3.org/2000/svg" xmlns:xlink="http://www.w3.org/1999/xlink" version="1.1"><path d="M0 495L18.5 509.3C37 523.7 74 552.3 111 555.2C148 558 185 535 222 513.7C259 492.3 296 472.7 333 480.5C370 488.3 407 523.7 444.2 530.5C481.3 537.3 518.7 515.7 555.8 505.5C593 495.3 630 496.7 667 486.7C704 476.7 741 455.3 778 463.8C815 472.3 852 510.7 889 530.8C926 551 963 553 981.5 554L1000 555L1000 1001L981.5 1001C963 1001 926 1001 889 1001C852 1001 815 1001 778 1001C741 1001 704 1001 667 1001C630 1001 593 1001 555.8 1001C518.7 1001 481.3 1001 444.2 1001C407 1001 370 1001 333 1001C296 1001 259 1001 222 1001C185 1001 148 1001 111 1001C74 1001 37 1001 18.5 1001L0 1001Z" fill="#005dff" stroke-linecap="round" stroke-linejoin="miter"></path></svg>