<svg id="visual" viewBox="0 0 1000 1000" 
    xmlns="http://www.w3.org/2000/svg" xmlns:xlink="http://www.w3.org/1999/xlink" version="1.1">
    <path
        d="M0 491L23.8 492.7C47.7 494.3 95.3 497.7 143 495.5C190.7 493.3 238.3 485.7 286 488.2C333.7 490.7 381.3 503.3 428.8 509.8C476.3 516.3 523.7 516.7 571.2 508.7C618.7 500.7 666.3 484.3 714 476C761.7 467.7 809.3 467.3 857 471.3C904.7 475.3 952.3 483.7 976.2 487.8L1000 492L1000 1001L976.2 1001C952.3 1001 904.7 1001 857 1001C809.3 1001 761.7 1001 714 1001C666.3 1001 618.7 1001 571.2 1001C523.7 1001 476.3 1001 428.8 1001C381.3 1001 333.7 1001 286 1001C238.3 1001 190.7 1001 143 1001C95.3 1001 47.7 1001 23.8 1001L0 1001Z"
        fill="#005dff" stroke-linecap="round" stroke-linejoin="miter"></path>
</svg>